<svg class="{{ include.class}}" xmlns="http://www.w3.org/2000/svg" width="176" height="121.9" viewBox="0 0 176 121.9">
  <circle fill="#76C044" cx="88" cy="63.3" r="48.2"/>
  <circle fill="#FFF" cx="88" cy="63.3" r="32.8"/>
  <path fill="#53C5BD" d="M73.6 62.2c.4-.4 1-.7 1.7-.7h3v-6.6c0-1.7.3-3.4.8-5s1.3-3 2.4-4.1c1.1-1.2 2.4-2.1 4-2.8 1.6-.7 3.4-1.1 5.6-1.1 1.5 0 2.9.2 4 .6 1.2.4 2.3.9 3.2 1.6.9.7 1.7 1.4 2.4 2.3.7.9 1.2 1.9 1.7 2.9L99.7 51c-.6.3-1.2.4-1.6.4-.7 0-1.3-.3-1.8-1-.3-.4-.7-.8-1.1-1.1-.3-.3-.7-.7-1.1-.9-.4-.2-.8-.4-1.3-.6-.4-.1-1.1-.2-1.7-.2-1.9 0-3.4.7-4.3 1.9s-1.4 3-1.4 5.2v6.7h11.4v2.7c0 .4-.2.8-.5 1.2-.3.4-.9.6-1.5.6h-9.5v5.4c0 1.2-.2 2.4-.7 3.3-.4 1-1.1 1.8-1.9 2.7 1.4-.3 2.7-.5 4.1-.5h16.4v2.9c0 .3-.1.7-.2 1.1-.1.3-.3.7-.6 1s-.6.5-1 .7c-.3.2-.7.3-1.2.3H73.5v-4.4c.6-.2 1.2-.3 1.8-.6s1.1-.6 1.6-1c.4-.4.7-1 1-1.5.3-.6.4-1.2.4-2V66h-5.4v-2.2c0-.6.3-1.2.7-1.6z"/>
</svg>
