<svg class="{{ include.class }}" xmlns="http://www.w3.org/2000/svg" width="176" height="121.9" viewBox="0 0 176 121.9">
  <path fill="#BDCF6E" d="M45.3 56s.6-5.5 9.3-5.5h20.7s3.2-2.8.4-9c-2.8-6.2-11.9-26.4.1-30.9 0 0 3 2.9 3 7.6s13.3 21.1 30 35.3h7.8v35.7H106s-2.9 10.3-32.7 10.3H56.2s-4.4-1.7-4.4-4.4 1.3-5.8 3.4-6.1c0 0-7.9.2-7.9-6.7 0-7 6.1-5.7 6.1-5.7s-6.8-1.7-8.2-6.4c-1.4-4.7 2.6-8.5 6.7-8.5h.3s-4 .5-6.9-5.7z"/>
  <path fill="#53C5BD" d="M116.8 91.6c0 .5.4.8.8.8h13c.5 0 .8-.4.8-.8V50.8c0-.5-.4-.8-.8-.8h-13c-.5 0-.8.4-.8.8v40.8z"/>
  <path fill="#76C044" d="M51.6 94.1c0 3 2.4 5.5 5.5 5.5h15.6c3 0 5.5-2.4 5.5-5.5 0-3-2.4-5.5-5.5-5.5H57.1c-3 .1-5.5 2.5-5.5 5.5z"/>
  <path fill="#FFF" d="M72.7 100.1H57.1c-3.3 0-6-2.7-6-6s2.7-6 6-6h15.6c3.3 0 6 2.7 6 6s-2.7 6-6 6zM57.1 89.2c-2.7 0-4.9 2.2-4.9 4.9s2.2 4.9 4.9 4.9h15.6c2.7 0 4.9-2.2 4.9-4.9s-2.2-4.9-4.9-4.9H57.1z"/>
  <path fill="#76C044" d="M47.3 82.3c0 3.5 2.8 6.4 6.4 6.4h18.2c3.5 0 6.4-2.8 6.4-6.4 0-3.5-2.8-6.4-6.4-6.4H53.6c-3.5 0-6.3 2.9-6.3 6.4z"/>
  <path fill="#FFF" d="M71.8 89.2H53.6c-3.8 0-6.9-3.1-6.9-6.9 0-3.8 3.1-6.9 6.9-6.9h18.2c3.8 0 6.9 3.1 6.9 6.9 0 3.8-3.1 6.9-6.9 6.9zM53.6 76.5c-3.2 0-5.8 2.6-5.8 5.8s2.6 5.8 5.8 5.8h18.2c3.2 0 5.8-2.6 5.8-5.8s-2.6-5.8-5.8-5.8H53.6z"/>
  <path fill="#76C044" d="M45.1 68.7c0 4 3.2 7.2 7.2 7.2H73c4 0 7.2-3.2 7.2-7.2S77 61.5 73 61.5H52.3c-4 0-7.2 3.2-7.2 7.2z"/>
  <path fill="#FFF" d="M73 76.5H52.3c-4.3 0-7.7-3.5-7.7-7.7 0-4.3 3.5-7.7 7.7-7.7H73c4.3 0 7.7 3.5 7.7 7.7s-3.5 7.7-7.7 7.7zM52.3 62a6.7 6.7 0 0 0 0 13.4H73A6.7 6.7 0 0 0 73 62H52.3z"/>
  <path fill="#76C044" d="M45.1 54.3c0 4 3.2 7.2 7.2 7.2h16.5c4 0 7.2-3.2 7.2-7.2s-3.2-7.2-7.2-7.2H52.3c-4-.1-7.2 3.2-7.2 7.2z"/>
  <path fill="#FFF" d="M68.7 62H52.3c-4.3 0-7.7-3.5-7.7-7.7s3.5-7.7 7.7-7.7h16.5c4.3 0 7.7 3.5 7.7 7.7S73 62 68.7 62zM52.3 47.5a6.7 6.7 0 0 0 0 13.4h16.5a6.7 6.7 0 0 0 0-13.4H52.3z"/>
</svg>
