<svg class="{{ include.class }}" xmlns="http://www.w3.org/2000/svg" width="176" height="121.9" viewBox="0 0 176 121.9">
  <path fill="#83C45C" d="M163.7 111.4H57.3s7-22.8 31.6-15.3c3.4-3.1 13-11.8 20.8-9.3 2.8-8.3 23-22.3 33.4 2.9 4.6 1.1 15.2 6.4 20.6 21.7z"/>
  <path fill="#BDCF6E" d="M84.1 21.2c-3.8 0-6.9-1.2-9.2-3.5-3.9-4-3.8-9.7-3.8-10.4l6 .2s-.1 3.8 2.1 6c1.2 1.2 2.9 1.8 5.2 1.7h.5c2.4.1 4.1-.5 5.3-1.7 2.1-2.2 2.1-5.9 2.1-5.9l6-.2c0 .6.1 6.4-3.8 10.4-2.4 2.4-5.6 3.6-9.6 3.5h-.4c-.2-.1-.3-.1-.4-.1z"/>
  <path fill="#BDCF6E" d="M81.7 19.7h6v65.6h-6z"/>
  <path fill="#00682D" d="M105.5 67.7H63.9s4.9 36.7 21 36.5c0 .1 16.6.1 20.6-36.5z"/>
  <path fill="#53C5BD" d="M12.3 111.6h106.4s-7-19-31.6-12.7c-3.4-2.5-13-9.9-20.8-7.8-2.8-6.9-23-18.6-33.4 2.4-4.6.9-15.2 5.4-20.6 18.1z"/>
  <path fill="#BDCF6E" d="M69.6 8.2h30.2M69.6 5.2h30.2v6H69.6z"/>
</svg>
