<svg x="0px" y="0px"
	 viewBox="0 448 900 900" enable-background="new 0 448 900 900" xml:space="preserve">
<path fill="#494949" d="M450,450c-122.2,0-137.5,0.6-185.5,2.7c-47.9,2.2-80.6,9.8-109.2,20.9c-29.6,11.5-54.7,26.9-79.7,51.9
	c-25,25-40.5,50.1-51.9,79.7C12.5,633.9,4.9,666.6,2.7,714.5C0.5,762.5,0,777.8,0,900s0.6,137.5,2.7,185.5
	c2.2,47.9,9.8,80.6,20.9,109.2c11.5,29.6,26.9,54.7,51.9,79.7c25,25,50.1,40.5,79.7,51.9c28.7,11.1,61.3,18.7,109.2,20.9
	c48,2.2,63.3,2.7,185.5,2.7s137.5-0.6,185.5-2.7c47.9-2.2,80.6-9.8,109.2-20.9c29.6-11.5,54.7-26.9,79.7-51.9
	c25-25,40.5-50.1,51.9-79.7c11.1-28.7,18.7-61.3,20.9-109.2c2.2-48,2.7-63.3,2.7-185.5s-0.6-137.5-2.7-185.5
	c-2.2-47.9-9.8-80.6-20.9-109.2c-11.5-29.6-26.9-54.7-51.9-79.7c-25-25-50.1-40.5-79.7-51.9c-28.7-11.1-61.3-18.7-109.2-20.9
	C587.5,450.5,572.2,450,450,450z M450,531c120.1,0,134.4,0.6,181.9,2.7c43.9,2,67.7,9.3,83.5,15.5c21,8.2,36,17.9,51.8,33.6
	c15.8,15.8,25.5,30.7,33.6,51.8c6.2,15.9,13.5,39.7,15.5,83.5c2.1,47.5,2.6,61.7,2.6,181.9s-0.6,134.4-2.8,181.9
	c-2.2,43.9-9.6,67.7-15.7,83.5c-8.4,21-18,36-33.8,51.8c-15.7,15.8-30.9,25.5-51.8,33.6c-15.8,6.2-39.9,13.5-83.8,15.5
	c-47.8,2.1-61.9,2.6-182.2,2.6s-134.4-0.6-182.2-2.8c-43.9-2.2-68.1-9.6-83.8-15.8c-21.4-8.4-36-18-51.8-33.8s-25.9-30.9-33.8-51.8
	c-6.2-15.8-13.5-39.9-15.8-83.8c-1.7-47.2-2.2-61.9-2.2-181.7s0.6-134.4,2.2-182.2c2.2-43.9,9.6-68.1,15.8-83.8
	c7.9-21.4,18-36,33.8-51.8s30.4-25.9,51.8-33.8c15.8-6.2,39.4-13.5,83.2-15.8c47.8-1.7,61.9-2.2,182.2-2.2L450,531z M450,668.9
	c-127.7,0-231.1,103.5-231.1,231.1c0,127.7,103.5,231.1,231.1,231.1c127.7,0,231.1-103.5,231.1-231.1
	C681.1,772.3,577.6,668.9,450,668.9L450,668.9z M450,1050c-82.9,0-150-67.2-150-150s67.2-150,150-150s150,67.2,150,150
	S532.9,1050,450,1050z M744.2,659.8c0,29.8-24.2,54-54,54c-29.8,0-54-24.2-54-54s24.2-54,54-54C720,605.8,744.2,630,744.2,659.8z"/>
</svg>
