<svg class="{{ include.class }}" xmlns="http://www.w3.org/2000/svg" width="1696" height="305" viewBox="0 0 1696 305">
  <path opacity=".9" fill="#8EEAD3" d="M942.5 152.6S1052.8 9.2 1183.1.3s237.4 152.3 237.4 152.3h-478"/>
  <path opacity=".9" fill="#00682D" d="M404.4 152.6c175.9-77.6 364.8-167.1 586.9 0H404.4"/>
  <path opacity=".8" fill="#80C8F6" d="M1127.8 152.4c-.2.2-.4.3-.7.5-8.7 6.3-17.5 12.4-26.5 18.5-155 104.3-304.2 57.1-416.6-18.8l443.8-.2z"/>
  <path opacity=".9" fill="#53C5BD" d="M684.1 152.6C443.7 78.3 372.7-49.2 0 152.5h1696s-115.9-233.3-358.7-119c0 0-180.6 83.4-372.5 118.8"/>
  <path opacity=".9" fill="#5EAD46" d="M144.5 152.6h1440.9S1292.3 25 875.6 107.4c-446.8 88.4-732.1-33-732.1-33"/>
</svg>
