<svg class="{{ include.class }}" version="1.1"
	 xmlns="http://www.w3.org/2000/svg" xmlns:xlink="http://www.w3.org/1999/xlink" xmlns:a="http://ns.adobe.com/AdobeSVGViewerExtensions/3.0/"
	 x="0px" y="0px" width="2090.9px" height="324px" viewBox="0 0 2090.9 324"
	 xml:space="preserve">
<defs>
</defs>
<path opacity="0.9" fill="#8EEAD3" d="M1949.4,172.4c0,0-36.6-162.1-285.6-172s-383.8,172-383.8,172h810.9"/>
<path opacity="0.9" fill="#53C5BD" d="M1666.7,96.9c0,0-172.1,85.1-385.7,13.3c-260.1-87.4-417.7,62.2-417.7,62.2h1003.5
	C1866.9,172.4,1791.6,33.2,1666.7,96.9z"/>
<path opacity="0.9" fill="#00682D" d="M200.2,129.1c0,0,172.1,48.8,385.7,7.6c260.1-50.1,417.7,35.6,417.7,35.6H0
	C0,172.4,75.2,92.6,200.2,129.1z"/>
<path opacity="0.8" fill="#80C8F6" d="M1067.2,171.9c-0.2,0.2-0.4,0.3-0.7,0.5c-8.7,6.3-17.5,12.4-26.5,18.5
	c-155,104.3-304.2,57.1-416.6-18.8L1067.2,171.9z"/>
<path opacity="0.9" fill="#5EAD46" d="M625.5,172.1H145.7c0,0,174.7-154.1,281.9-97.8c0,0,77.8,41.6,196.3,98"/>
<path opacity="0.9" fill="#5EAD46" d="M1066.2,172.4c209.1-128.5,315.1-290.8,697.8,0L1066.2,172.4"/>
</svg>
