<svg xmlns="http://www.w3.org/2000/svg" width="482.6" height="650.6" viewBox="0 0 482.6 650.6">
  <path fill="#83C45C" d="M377.7 153.5c-4.1 5.8-8.4 11.8-12.7 17.8-.1.2-.3.3-.3.5-1.2 3.4-2.3 6.8-3.5 10.1-.5 1.4-1.3 2.7-2 4-1.5 2.6-3 5.2-4.4 7.7 2.6 2 4.9 3.7 6.9 5.7.8.7.9 2.1 1.3 3.2.4 1.3.8 2.5 1.2 3.8 1.2-.5 2.5-.9 3.7-1.6 1.9-1.1 3.7-2.5 5.7-3.3 3-1.1 4.4.2 3.7 3.3-.5 1.9-.9 3.8-1.6 5.6-1.3 3.3-3.2 5.8-7.1 6.3-.8.1-1.9.4-2.3.9-1.6 2.4-3 5-4.4 7.5-.5.8-1.1 1.4-1.9 2.5.2.2.7 1 1.3 1.6 1.3 1.3 2.2 1.9 1 4.5-1.6 3.3-1.6 7.4-1.8 11.2-.1 2.2 0 4-2.5 5.1-.8.3-1.5 1.5-1.6 2.4-.1.5 1.1 1.4 1.8 1.7 3.5 1.3 7.1 2.4 10.9 3.7 1.3 4.3-1.3 7.6-4 10.8 5 1.7 6.8 4.8 6.6 9.8-.1 2 .7 4.1.8 6.1.1 2 0 4-.3 6 .3 1.7.4 3.4 1 5 .5 1.4 1.3 2.9 2.4 3.8 1.6 1.3 3.7 2.2 5.7 3.3-2.8 1.9-5.5 3.7-8.7 5.9.1 0-.7-.1-1.3-.4-1.6-.7-2.6-.2-3.5 1.2-2.9 4.4-4.9 4.5-8.8.8-2.7-2.6-5.7-4.8-8.7-7.2-.4-.3-1-.5-1.5-.7-3.1-1.2-6.2-2.3-8.6-3.2-1.6 1.3-3.4 2.8-5.3 4.2-1.8 1.3-3.6 2.6-5.5 4 5.1 2.3 8.4 6.1 11 10.8 1.2 2.2 3.9 3.6 5.7 5.1-2.6 2.9-5.1 5.8-7.7 8.7 1.1 2.3 2.3 5 3.7 7.9-4.1 2.5-1.9 6.5-2.2 9.1 2.4 1.8 4.2 3.5 6.3 4.8 2.1 1.3 4 3.9 7.2 1.7 1.5-1.1 7.8 1 8.9 2.5.1.2.3.3.3.5-.9 3.4 1.2 6.6.7 10-.4 2.7-.6 5.5-1 8.8 3-1.3 4.5 0 6.2 1.5 1.9 1.6 4.6 2.4 6.9 3.3 1.2.5 2.2.6 2.7 2.3.6 2.3 8.1 6.2 10.5 5.7.9-.2 1.9-1.4 2.1-2.3.2-1.3-.4-2.7-.6-4.1-.2-1.3-.6-2.6-.5-3.9.2-2.4 1-2.3 3.1-1.4 1.9.9 4.2 1 6.4 1.2 2.5.2 5 .2 7.5.3 1.7.1 3.4.2 5.1.6 1.1.2 2.3.7 3.3 1.2 2.1 1 2.9.5 3.1-1.8.1-1.4.2-2.9.8-4 .7-1.3 1.9-1.9 3.4-.5.7.7 2 1.1 3 1 5.4-.3 10.4.5 14.7 4 .2.2.5.4.7.4 4.5.1 7 2.5 8 6.7 4.2-.4 5.3.5 5.6 4.7.2 2 1.2 2.7 2.9 4 3.2 2.4 7.5 4.3 8.1 9.3.2 2 1.1 4.3 3.6 4.9 3.2.8 4 3.1 4.3 5.9.1 1.1-.2 2.3-.3 3.4-.3 2-.4 3.8.1 6s-.8 4.9-1.5 7.2c-.4 1.2-1.3 2.3-1.9 3.5-1.2 2.5-.5 3.8 1.9 5.3 2.1 1.3 3.9 3.1 5.7 4.9.4.4.4 1.6.1 2-.3.4-1.5.8-1.9.5-2.1-1.1-3 .2-4.2 1.5-.8.9-1.9 1.4-3.4 2.6 1.4.1 2.2 0 2.8.3 2.1.8 4.4 1.5 6.1 2.8 2 1.5 1.5 3.6-.9 4.2-1.7.5-3.8.6-5.5.1-2.5-.8-4.8-2.1-7.1-3.5-3.3-1.9-5.4-1.8-8 .9-1.9 1.9-3.9 3.7-6.2 6 .4.7 1.2 2.1 2 3.4 1.2 2 2.8 3.9-.5 5.5-.5.2-.7 1.2-1.1 2.1-.7-.7-1.3-1.2-1.3-1.3-3.1.3-5.7.6-8.5.8.4.7.8 1.4 1.3 2.2-.7.2-1.2.4-1.6.6 1.9 2.7 4.1 5.2 5.7 8 2 3.4-1.1 9.1-5 9.4-2 .1-2.7.8-2.5 2.7.1.5 0 .9 0 1.4 0 5.3.4 5.7 5.6 6.1.3 0 .5.2 1.1.5-.5 1.6-.8 3.2-1.5 4.7-.9 2.1-1.6 4-.9 6.5.9 3 3.6 4.4 5.9 2.1 1.8-1.8 3.1-1.4 4.9-.3 2 1.2 3.7 2.7 3.1 5.2-1 4-2.7 7.5-7.3 8.8-5.1 1.4-5.8 2.8-4.9 8.1.1.7.2 1.5.2 2.3-.1 4 1.3 6.9 5.2 8.5.6.2 1.1 1 1.4 1.6.4 1.2 1 1.3 2.1 1.7 2.6 1 4.8 3.1 7.1 4.8.5.4.6 1.3 1.1 1.5 1.5.8 4 .3 4 3 0 1.8-.4 3.6-.3 5.3 0 .9.5 2.1 1.2 2.6 1 .8 1.5 1.1 1.1 2.6-1.2 4.3-.1 7.5 3.9 9.8 5.6 3.3 7.9 7.6 6.2 14.2-.9 3.5.1 4.8 3.7 6.5 1.7.8 3.2 1.9 2.4 3.8-.6 1.3-1.9 2.8-3.2 3.2-3 1-6.4.8-8.7 3.5-.4.5-1.1.9-1.3 1.4-.9 2.4-1.9 4.7-2.5 7.2-.6 2.2-1.4 3.9-3.9 4-2.5.1-3.5 1.3-3.1 3.8.4 2.5-.7 4-2.9 5.3-1.1.6-1.9 1.9-2.4 3.1-1.4 3.3-2.2 3.7-5.8 3.4-.8-.1-2 .8-2.6 1.5-1.3 1.5-2.4 3.1-3.6 4.7-1.8 2.4-6.3 1.8-8.4-.4-.7-.7-.9-2.5-.5-3.3.6-1.1 2.1-1.7 3.6-2.9-.7-2.4-1-5.5 2.9-6.8-.6-2.4-.9-4.7-1.7-6.7-.6-1.5-2-2.8-3-4.1-.7-.9-1.5-1.7-2-2.7-1.5-2.9-3.1-3.2-5.5-.9-.5.5-1.1 1-1.6 1.6-1.4 1.8-3.1 2.7-5.5 1.4-.5 2.5-2 3.2-4.2 2.5-.1 0-.2 0-.3-.1-5.7-.7-6.8.4-7.3 6.2-.1 1.2-1.4 2.4-2.1 3.5-.8 1.2-2 2.2-2.2 3.5-.5 2.8-4 5-6.5 3.4-3.5-2.2-6.8-4.7-10.1-7.1-2-1.4-2.4-3.5-2.3-5.8.4-7.3-4.8-11.7-12-9.8-4.1 1.1-8 2.6-11.9 4.2-5.6 2.3-13-2.1-13.9-8-.6-3.7-2-7.2-3.3-10.7-.9-2.4-2.9-3.3-5.4-3.3-1.1 0-2.3-.1-3.4 0-4 .5-6.6-1.6-8.3-4.7-1.6-3-.9-6 .7-8.9.5-.9 1.2-1.7 1.8-2.5 2.3-3.5 1.9-6.9-1.6-12.1-3.2 2.5-8.1 2.4-10.1 6.9-.2.3-.7.6-1.2.7-6.8 1.6-13.7 3.2-20.5 4.8-4.7 1.1-6.3-.7-4.9-5.3.2-.5.3-1 .6-2.1-4.2.7-8 1.5-11.8 2-1 .1-2.1 0-3-.5-3.6-1.9-7.4-2.3-11.3-1.7-4.1.6-7-.9-9.4-3.9-2.1-2.7-4.3-5.3-8.2-5.4-1 0-2.6-1.2-2.8-2.1-.5-2.5-2.2-2.4-4.1-3-5.9-1.8-11.7-4-17.5-6.2-1.1-.4-2-1.6-3.3-2.8-1.1 3.5-2.1 6.9-3.1 10.4-.3 1.1-.4 2.2-.6 3.3-.8 4-3.9 5.2-7 2.6-.6-.5-1.3-1.3-1.8-1.2-3.6.8-5.1-2.2-7.3-3.9-.7-.6-2.1-1.2-2.6-.9-1.3.8-3.1 1.9-3.3 3.2-.8 4.6-6.6 8.9-11 7.5-.8-.3-1.6-1.3-1.9-2.1-1.6-4.2-3.4-4.6-6.4-1.4-2.3 2.5-4.7 4.9-7.6 7.9-1.2-3.5-2-6.1-3-8.9-5.6 5-11.5 9.2-19.8 8.4.1.7.4 1.4.4 2-.1 1.1-.2 2.6-.9 3.2-.8.6-2.4.9-3.4.4-3.1-1.4-6.1-3-8.9-4.9-.8-.6-1.4-2.3-1.2-3.4.3-2.4-.3-4.1-2.4-5.2-1.8-.9-3.7-1.8-5.6-2.7-1.3-.6-2.8-1.1-4-1.9-3.3-2.1-6.8-2.2-10.1-.1-1 .7-2 1.4-3.3 2.2-2-1.4-4.1-2.9-6.2-4.4.1 0 .1-.1.2-.1-1.2-.5-2.4-1.4-3.5-1.4-1.7.1-3.4.7-4.8 1.5-.8.4-1.1 1.8-1.8 2.5-1.2 1.1-2.6 1.9-4.5 3.2.7 2.4-1.4 4-4.1 5.4-3.8 1.9-2.9 5.8-3.5 9-.9 5-7.3 10.8-11.9 10.4-1.8-7.6-4.7-14.6-9.6-20.7-2.1-2.7-3.5-6-5.6-8.8-2.9-3.8-5.2-8-7-12.4-.7-1.7-1.4-3.5-2.4-5.1-1.1-1.8-2.4-3.5-3.8-5.1-.3-.3-1.5-.1-2.1.2-2.7 1.3-5.3 2.8-8 4.2-2.5 1.3-4.6 1-6.4-1.5-2.4-3.2-3.9-6.7-3.9-10.7 0-.3-.1-.6 0-.8 3.5-6 .3-11.5-1.1-17.2-.2-.9.4-2.3 1.2-3 1.5-1.5 3.5-2.5 3.5-5.1 0-.7 1.2-1.5 2.1-2.4 1.7 2 3.3 2.2 5 .3 1.4-1.6 1.6-3-.1-4.3-2.3-1.8-1.6-3.5-.3-5.6 1.9-3.1 3.7-6.3 5.2-9.7.9-2-.4-3.8-2.5-3.9-5.2-.2-7.6-3.7-9.7-7.5-1.1-2.1-1.8-4.2-4.8-3.6 0-.7-.2-1.4 0-1.6 2.2-2.3 1.6-4.9.5-7.3-1.1-2.3-2.3-4.7-4-6.5-2.3-2.4-.8-4.7-.4-6.9.4-2.5 1.3-5.1 2.8-7.2 1.5-2.1 3.5-4.2 5.8-5.2 3.4-1.5 6.7 2.4 5.9 6.5 4 2.1 10 1.8 13.5-.6-1.5-3.6-3-7.2-4.6-10.7-.2-.4-.9-.7-1.5-.9-1.3-.6-2.9-.8-3.9-1.7-3.5-3.2-7-6.5-10.2-10-1.1-1.2-1.5-3.1-2.3-4.7-.9-2-1.6-4.1-2.9-5.8-1.2-1.6-1.6-2.4.4-3.7 3.8-2.5 3.6-4.5 3.4-9-.3-5.7-3.4-10.3-4.5-15.5-.7-3.4-1.7-6.7-1.8-10.1-.2-6.7-3-11.5-8.5-15.2-4.5-3.1-4.3-3.7.2-6.8 3.1-2.1 6.2-4.2 9.4-6.2 4.7-2.9 6.9-7.6 8.9-12.3 1-2.4 1.8-4.9 2.6-7.3-.4.1-.8.1-1.2.2-.9-1.3-2.3-2.6-2.6-4-.9-4.4-1.7-8.9-2-13.4-.1-2 1.1-4.1 1.8-6.1 1-3.1 2.2-6.2 2.8-9.4.2-1.3-1-2.9-1.5-4.4-.8-2.3-.2-5.1-3-6.7-.5-.3.2-4.2 1.4-5.6 2.3-2.6 5.4-4.6 8.1-6.9.5-.4 1-1.2.8-1.7-1.2-3.7.8-6.3 2.6-9 .4-.6.4-1.7.2-2.4-.5-2.1.3-3.4 1.9-4.9 1.9-1.9 3.4-2.3 5.6-.6 1.6 1.2 7.4-.3 8.5-2.1.3-.4.2-1.1.2-1.6-.2-2.9-.3-5.9-.6-8.8-.1-1.1-.7-2.1-.8-2.4-1.8-.4-3.6-.4-3.7-.9-.8-2.3-1.4-4.8 1.4-6.6-.8-.7-1.5-1.2-2.2-1.8 5.3-5.1 10.4-10.1 16.1-15.6-1.1-1.8-2.6-4.3-4.1-6.8-.5-.9-1.3-1.7-1.6-2.6-1.6-4-3.9-6.8-8.8-5.8-.4.1-1-.4-1.5-.5-1-.2-1.9-.4-2.9-.5-.9-.1-1.9-.1-2.8-.2.2-.8.4-1.7.6-2.5.1-.4.4-.8.9-1.6-5.4-.4-7.2-4.4-8.4-8.6-.6-2.2-.3-4.7-.2-7.1.1-1.9.6-3.8 1-5.8.1-.7.3-1.5.7-1.9.3-.3 1.3-.1 1.7.2 3.5 2.6 7.2 5.1 10.4 8.1 6.1 5.8 12.7 11.2 16.6 18.9.2.5.7.8 1.2 1.3 4.2-3.5 8-7.2 10.4-12.1.2-.5-.1-1.5-.4-2-1.2-1.7-2.5-3.4-3.8-5 .2-.3.4-.5.7-.8 1.6.7 3.3 1.4 4.9 2.2 3.3 1.8 6.5 1.9 10 .2 4.2-2 8.6-3.7 13.1-5.7-1-2.3-1.8-4.6-2.9-6.8-1-2-.1-3.2 1.6-4.1 1.5-.9 3.1-1.7 4.6-2.7 2.2-1.4 4.5-.9 7.7 1.6 2.7 2.1 3.2 2 3.9-1.2.5-2.6.4-5.3 1-7.8.8-3.2 1.7-6.4 3.2-9.3 2.4-4.5 3.7-9.1 4.4-14.1.8-5.2 2.3-10.2 3.5-15.3.8-3.5 1.7-6.9 2.5-10.4.5-2.5.1-4.8-1.3-7-2.3-3.7-.5-8.3 3.6-9.7 1.9-.6 2.6-2.2 1.3-4-1-1.3-.7-2.1.2-3.2 1.1-1.5 2.1-3.1 2.9-4.8.3-.7.2-1.8 0-2.7-.5-1.8-.2-3.1 1.9-3 1.9.2 2.4-.7 2.3-2.3 0-.6-.2-1.2.1-1.7.4-.9 1-1.9 1.7-2.3.5-.2 1.9.3 2.3.9 1.5 2.5 3.9 2.4 6.3 2.4h5.7c1.9.1 2-1.2 1.8-2.5-.4-2.9-1-5.7-1.6-8.6-.2-1.3-.7-2.7-.5-3.9.2-.9 1.8-2.3 2.1-2.1 2.4 1.2 4.4-.2 6.4-.9 3-1.1 6.5-2.6 9.3-.7 3.8 2.5 7.8 5.1 10.3 9.3 1.5 2.5 3.8 4.5 5.8 6.7 1.2 1.4 2.4 2.7 4.2 4.7.8-.4 2.4-.9 3.4-2 1.5-1.6 3.2-2.3 5.4-2.4 1.7-.1 4.3-.7 4.7-1.7.5-1.4-.4-3.6-1.3-5.1-.8-1.5-2.4-2.5-3.6-3.8-.5-.5-.9-1.2-1-1.8-.5-3.5-.4-3.3-4.1-2.7-2.3.4-4.7.4-7 0-1.8-.3-2.9-1.4-1.2-3.4.9-1 1.4-2.4 2-3.6 1.1-1.9 1.8-3.7 4.5-4.5 2.5-.7 4.3-3.5 6.5-5.1 1-.7 2.4-1.1 3.7-1.2 2.5-.2 5.1-.1 7.9-.1-1.4-3.7.3-5.9 3-7.7.5-.4.8-1.5.6-2.2-1.2-4.9-.6-9.1 3.7-12.4.5-.4.6-1.4.8-2.2.1-.7-.1-1.6.1-2.3.3-.9.9-1.8 1.4-2.6.8.5 1.8.8 2.3 1.5 1.7 2.4 3.4 4.9 4.9 7.5 1.3 2.2 2 4.4 4.4 6.2 1.8 1.3 2.1 4.5 3.3 6.9.7 1.4 1.5 2.8 2.4 4.1 2.6 3.7 5.4 7.3 8 11.1 5.4 8 12 14.7 18.9 21.3 1.7 1.6 2.8 4 4.1 6 .8 1.2.3 2.1-1.1 2.1-2.4 0-4.9 0-7.2-.6-3.5-.9-6.2-.6-9.5 1.5-2.6 1.7-6.4 2.3-9.6 2.4-4.5.2-8.5 1.6-12.5 3.3-3.5 1.5-1.3 4.2-1.1 6.3.2 2 1.9 2 3.5 1.8 2.1-.2 4.2-.4 6.2-.2.9.1 2.1 1 2.5 1.8.3.7-.2 1.9-.8 2.7-.9 1.3-2.1 2.3-3.2 3.5 3.2 1.7 3.7 2.8 2.4 5.1-.2.4-.5 1-.9 1.1-3.8.4-2.9 3-3 5.5 0 1.2-.6 2.5-1.2 3.7-1.6 3.1-1.8 4.1 1.7 5.8 3.4 1.6 5.6 4.4 7 7.3 1.3 2.5.9 6 1.1 9 .1.7-.2 1.4-.3 2.1 5.3 1.5 7.1 4.5 7.4 11.7.1 2.6 1.3 5.1 1.3 7.7 0 2-.6 4.3-1.8 6-1.5 2.3-.8 4.5-1.1 6.8-.1 1-.7 2-1.1 3-.3.8-1.2 1.6-1 2.2.5 2.2 1.4 4.3 2 5.9.6-.5 1.3-1.4 2.2-1.6 2.6-.6 5.1-.9 7.6.7.8.5 2.3.4 3.4 0 1.3-.4 2.5-1.3 3.7-2 3.2-1.9 6.3-2.3 9.4.1 2.8 2.2 6 2.8 9.5 3.2 3.5.4 6.9 1.7 10.4 2.3 1.1.2 2.8-.2 3.5-.9 1.9-1.9 4-2.4 6.4-2.1 2.6.3 4.5-.4 5.7-3 .9-2 2.3-3.7 3.5-5.5 1.2-1.7 2-3.2 4.9-2.1 1.4.6 3.7-1.2 5.6-1.9 2.1-.8 4.3-1.5 6.4-2.5.9-.4 2.2-1.4 2.3-2.3.2-2.6 1.2-4.4 3.4-5.8.8-.6 1.3-1.8 1.8-2.7.6-1.2 1-2.6 1.7-3.8 1.6-2.7 4.9-3.6 7.1-1.6 2.4 2.2 4.5 2.5 6.9-.3 1.7 2.9 3.2 5.6 4.9 8.4 1-.4 1.8-.7 2.5-1.1 1.6-1 3.1-1.7 4.6.2.2.3 1.1.2 1.7.1 1.7-.3 3.3-.9 4.9-1.1 2.1-.3 3.4.3 3.6 2.8-.1 1.1.9 2.2 1.9 3.9z"/>
  <path fill="none" stroke="#C8E0B8" stroke-linecap="round" stroke-linejoin="round" stroke-miterlimit="10" stroke-dasharray="1,4" d="M98.7 160c5.8 2.1 12 8.3 18 9.9 6 1.6 11.9-1.8 17.5-4.5 5.5-2.7 12.5-4.9 17.5-1.3 3.4 2.4 5 6.9 8.7 8.9 5 2.6 10.9-.5 16.5-1 5.7-.5 11.6 1.9 15.2 6.4 3.6 4.4 4.8 10.7 3.1 16.2-.6 2-1.6 4-1.4 6.1.3 3.1 2.9 5.4 5.4 7.3 7.3 5.6 14.6 11.3 21.8 16.9 2.4 13.4 16.4 23.1 16.8 36.7 1 .2 2 .4 2.9.6.7 2.1.3 4.5-1 6.3-.9 1.3-2.3 2.2-3.3 3.4-3.3 4-2.2 10-.8 15.1-9 .7-18 1.3-27 2-1.6.1-3.3.3-4.5 1.4-.9.8-1.3 2-1.7 3.2-1.8 5.8-3.3 12.1-1.3 17.7 1.2 3.5 3.7 6.4 5.2 9.7 3.1 7.1 1.8 15.5 4.9 22.6 4 9 14.4 14.1 17.9 23.3 2.7 7.2 1 16.3 6.5 21.7 5.2 5.2 13.9 4 19.1 9.4 3.7 3.9 3.5 10.1 5.8 14.9 7.5 15.6 15.7 30.3 17.7 47.9.1 1.1.2 2.3-.2 3.4-.7 1.6-2.5 2.5-4.1 3.1-5.5 2.3-11.8 4.6-17.3 2.2-1.7-.7-3.2-1.9-4.9-2.7-2.1-1-4.4-1.3-6.7-1.7-1.8-.3-3.6-.5-5.3 0-1.7.5-3.2 2.2-3 3.9.2 1.5 1.6 2.7 2.9 3.5 2.7 1.7 5.6 3.1 8.6 4.1-2.1 6.2-4 12.4-5.7 18.7 6.9 1.9 11.8-8.4 19-8.7 7.2-.2 12.2 9.8 19.3 8.6-.9 7.7-7.6 12.8-13.6 17.7-10.6 8.6-18.4 20.1-26.1 31.4-2.3 3.5-4.4 8.8-.9 11.1 2.1 1.4 5.1.5 7.1-1.1s3.4-3.9 5.4-5.5c3.2-2.6 7.7-3.3 11.5-1.9 2.7 1 5 3 7.5 4.4s5.7 2.3 8.3 1c2.4-1.3 3.5-4 5.1-6.1 2-2.7 5-4.6 8.2-5.3 3.2-.7 7.4.3 8.1 3.6.5 2.5-1.4 4.8-3.1 6.7-8 8.8-15.3 18.3-19.9 29.2"/>
  <path fill="none" stroke="#C8E0B8" stroke-linecap="round" stroke-linejoin="round" stroke-miterlimit="10" stroke-dasharray="1,4" d="M15.7 459.7c2.8-2.3 16.8-10 20.3-11s7.6-.1 9.6 2.8c.4.6.7 1.3 1.2 1.7 2.1 1.8 4.9-1.2 6.7-3.3 3.6-4.3 9.6-6.4 15-5.3 3.1.6 6.2 2.2 9.3 1.5 5.6-1.3 7.2-8.6 12-11.7 4.5-2.9 10.6-1.2 15.1 1.7 4.5 2.8 8.5 6.7 13.6 8.5 1.4-3.6 3.3-7.2 6.6-9.2s8.4-1.1 9.8 2.4c-.9-5.8 3.6-11.9 9.4-12.7 2.7-.4 5.5.3 8.1.9 8 1.9 16.3 3.7 24.5 2.8 8.2-.9 16.5-5.1 20.2-12.5 6.3-12.7-3.2-27.4-3.5-41.5-.1-3.5.4-7 2.1-10 3.3-5.8 10.6-8.4 17.3-8.8 6.7-.5 13.5.6 20.2-.3 1.9-.3 3.9-.7 5.5-1.8s2.6-2.7 3.9-4.1c6.7-7.2 19.3-7.5 26.3-.7.7-6 1.4-12 2.2-18 .1-.9.2-1.9.8-2.6.6-.8 1.6-1.2 2.6-1.5 7.7-2 16.6 2.3 19.8 9.6 1 2.3 1.9 5.2 4.3 5.7 3 .6 4.9-2.8 6.9-5.1 3.4-3.9 9-5.3 14.2-4.7 5.1.6 14.6 5.5 19.2 7.9"/>
  <g fill="#4D8E38">
    <path d="M40.4 493.8v2.5h3.7v1.8h-3.7v4.3h-2V492h6.4v1.8h-4.4zM52.7 495.9v6.6h-1.8l-.1-.9c-.4.6-1.1 1-2.2 1-1.7 0-3.2-1.4-3.2-3.4s1.5-3.4 3.2-3.4c1 0 1.6.4 2.1.9v-.8h2zm-1.9 3.3c0-1-.8-1.7-1.7-1.7-.9 0-1.7.8-1.7 1.7s.7 1.7 1.7 1.7 1.7-.8 1.7-1.7zM59.8 496.1l-.7 1.7c-.2-.1-.5-.2-.7-.2-.8 0-1.5.7-1.5 1.9v3h-2v-6.6h2v1.1c.4-.7 1-1.2 1.8-1.2.5 0 .9.1 1.1.3zM61 493.7c0-.6.5-1.1 1.1-1.1.6 0 1.1.5 1.1 1.1 0 .6-.5 1.1-1.1 1.1-.6 0-1.1-.5-1.1-1.1zm.2 2.2h2v6.6h-2v-6.6zM71.6 498.3v4.2h-2v-4c0-.6-.5-1.1-1.1-1.1-.7 0-1.1.5-1.1 1.1v3.9h-2v-6.6h2v.7c.5-.5 1.1-.8 1.8-.8 1.4.1 2.4 1.2 2.4 2.6zM80.4 495.9v6.3c0 2.4-1.6 3.7-3.7 3.7-1.1 0-2.5-.4-3.3-1.5l1.1-1.2c.7.7 1.4 1 2.1 1 1.1 0 1.8-.7 1.8-2v-.6c-.4.5-1.1 1-2 1-1.8 0-3.2-1.4-3.2-3.4s1.4-3.4 3.2-3.4c1 0 1.6.4 2.1 1v-.8h1.9zm-1.9 3.3c0-1-.8-1.7-1.7-1.7-1 0-1.7.8-1.7 1.7 0 1 .7 1.7 1.7 1.7s1.7-.8 1.7-1.7zM89.3 492v10.5h-1.8l-.1-.9c-.4.6-1.1 1-2.2 1-1.7 0-3.2-1.4-3.2-3.4s1.5-3.4 3.2-3.4c1 0 1.6.4 2.1.9V492h2zm-1.9 7.2c0-1-.8-1.7-1.7-1.7-.9 0-1.7.8-1.7 1.7s.7 1.7 1.7 1.7 1.7-.8 1.7-1.7zM91 499.2c0-1.9 1.5-3.4 3.5-3.4s3.5 1.5 3.5 3.4-1.5 3.4-3.5 3.4-3.5-1.5-3.5-3.4zm5.2 0c0-1-.7-1.7-1.6-1.7s-1.6.7-1.6 1.7.7 1.7 1.6 1.7 1.6-.7 1.6-1.7zM105.9 498.3v4.2h-2v-4c0-.6-.5-1.1-1.1-1.1-.7 0-1.1.5-1.1 1.1v3.9h-2v-6.6h2v.7c.5-.5 1.1-.8 1.8-.8 1.4.1 2.4 1.2 2.4 2.6z"/>
  </g>
  <g fill="#4D8E38">
    <path d="M206.2 480.4h-4.4l-.6 1.6H199l4-10.5h2l4 10.5h-2.3l-.5-1.6zm-.6-1.8L204 474l-1.6 4.7h3.2zM217.6 478.7c0 2-1.5 3.4-3.2 3.4-1 0-1.7-.4-2.2-1l-.1.9h-1.8v-10.5h2v4.7c.5-.5 1.1-.9 2.1-.9 1.7-.1 3.2 1.4 3.2 3.4zm-2 0c0-1-.7-1.7-1.7-1.7s-1.7.8-1.7 1.7.8 1.7 1.7 1.7 1.7-.8 1.7-1.7zM219.2 473.2c0-.6.5-1.1 1.1-1.1.6 0 1.1.5 1.1 1.1 0 .6-.5 1.1-1.1 1.1-.6 0-1.1-.5-1.1-1.1zm.1 2.2h2v6.6h-2v-6.6zM229.8 477.8v4.2h-2v-4c0-.6-.5-1.1-1.1-1.1-.7 0-1.1.5-1.1 1.1v3.9h-2v-6.6h2v.7c.5-.5 1.1-.8 1.8-.8 1.3.1 2.4 1.2 2.4 2.6zM238.6 475.4v6.3c0 2.4-1.6 3.7-3.7 3.7-1.1 0-2.5-.4-3.3-1.5l1.1-1.2c.7.7 1.4 1 2.1 1 1.1 0 1.8-.7 1.8-2v-.6c-.4.5-1.1 1-2 1-1.8 0-3.2-1.4-3.2-3.4s1.4-3.4 3.2-3.4c1 0 1.6.4 2.1 1v-.8h1.9zm-1.9 3.3c0-1-.8-1.7-1.7-1.7-1 0-1.7.8-1.7 1.7 0 1 .7 1.7 1.7 1.7s1.7-.8 1.7-1.7zM247.5 471.5V482h-1.8l-.1-.9c-.4.6-1.1 1-2.2 1-1.7 0-3.2-1.4-3.2-3.4s1.5-3.4 3.2-3.4c1 0 1.6.4 2.1.9v-4.7h2zm-1.9 7.2c0-1-.8-1.7-1.7-1.7-.9 0-1.7.8-1.7 1.7s.7 1.7 1.7 1.7 1.7-.8 1.7-1.7zM249.2 478.7c0-1.9 1.5-3.4 3.5-3.4s3.5 1.5 3.5 3.4-1.5 3.4-3.5 3.4-3.5-1.5-3.5-3.4zm5.1 0c0-1-.7-1.7-1.6-1.7s-1.6.7-1.6 1.7.7 1.7 1.6 1.7 1.6-.7 1.6-1.7zM264.1 477.8v4.2h-2v-4c0-.6-.5-1.1-1.1-1.1-.7 0-1.1.5-1.1 1.1v3.9h-2v-6.6h2v.7c.5-.5 1.1-.8 1.8-.8 1.4.1 2.4 1.2 2.4 2.6z"/>
  </g>
  <g fill="#4D8E38">
    <path d="M231.3 529h3.3c3.3 0 5.4 2.4 5.4 5.2s-2 5.2-5.4 5.2h-3.3V529zm3.2 8.6c2.1 0 3.3-1.5 3.3-3.4s-1.2-3.4-3.3-3.4h-1.2v6.8h1.2zM241.7 530.7c0-.6.5-1.1 1.1-1.1.6 0 1.1.5 1.1 1.1 0 .6-.5 1.1-1.1 1.1-.6 0-1.1-.5-1.1-1.1zm.1 2.2h2v6.6h-2v-6.6zM252.8 529v10.5H251l-.1-.9c-.4.6-1.1 1-2.2 1-1.7 0-3.2-1.4-3.2-3.4s1.5-3.4 3.2-3.4c1 0 1.6.4 2.1.9V529h2zm-1.9 7.2c0-1-.8-1.7-1.7-1.7s-1.7.8-1.7 1.7.7 1.7 1.7 1.7 1.7-.8 1.7-1.7zM254.5 536.2c0-1.9 1.5-3.4 3.5-3.4 1.4 0 2.7.8 3.2 2.1l-1.6.7c-.3-.6-.8-1-1.5-1-.9 0-1.7.7-1.7 1.7 0 .9.7 1.6 1.7 1.6.7 0 1.3-.4 1.5-1l1.6.7c-.5 1.2-1.7 2.1-3.2 2.1-2-.1-3.5-1.6-3.5-3.5zM262.2 536.2c0-1.9 1.5-3.4 3.5-3.4s3.5 1.5 3.5 3.4-1.5 3.4-3.5 3.4-3.5-1.5-3.5-3.4zm5.1 0c0-1-.7-1.7-1.6-1.7s-1.6.7-1.6 1.7.7 1.7 1.6 1.7 1.6-.7 1.6-1.7zM274.6 534.4h-1.2v5.1h-2v-5.1h-1.2v-1.5h1.2v-2.4h2v2.4h1.2v1.5z"/>
  </g>
  <g fill="#4D8E38">
    <path d="M318.6 550l-3.9 10.5h-2.1l-1.3-3.4-1.4 3.4h-2.1L304 550h2.2l2.8 8.2 1.3-3.5-1.9-4.7h2l.8 2.1.8-2.1h2l-1.9 4.7 1.3 3.5 2.8-8.2h2.4zM325.3 553.9v6.6h-1.8l-.1-.9c-.4.6-1.1 1-2.2 1-1.7 0-3.2-1.4-3.2-3.4s1.5-3.4 3.2-3.4c1 0 1.6.4 2.1.9v-.8h2zm-1.9 3.3c0-1-.8-1.7-1.7-1.7-.9 0-1.7.8-1.7 1.7s.7 1.7 1.7 1.7 1.7-.8 1.7-1.7zM327.6 550h2v10.5h-2V550zM331.9 550h2v10.5h-2V550zM336 551.7c0-.6.5-1.1 1.1-1.1.6 0 1.1.5 1.1 1.1 0 .6-.5 1.1-1.1 1.1-.6 0-1.1-.5-1.1-1.1zm.1 2.2h2v6.6h-2v-6.6zM346.6 556.3v4.2h-2v-4c0-.6-.5-1.1-1.1-1.1-.7 0-1.1.5-1.1 1.1v3.9h-2v-6.6h2v.7c.5-.5 1.1-.8 1.8-.8 1.4.1 2.4 1.2 2.4 2.6zM355.4 553.9v6.3c0 2.4-1.6 3.7-3.7 3.7-1.1 0-2.5-.4-3.3-1.5l1.1-1.2c.7.7 1.4 1 2.1 1 1.1 0 1.8-.7 1.8-2v-.6c-.4.5-1.1 1-2 1-1.8 0-3.2-1.4-3.2-3.4s1.4-3.4 3.2-3.4c1 0 1.6.4 2.1 1v-.8h1.9zm-1.9 3.3c0-1-.8-1.7-1.7-1.7-1 0-1.7.8-1.7 1.7 0 1 .7 1.7 1.7 1.7s1.7-.8 1.7-1.7zM361.7 555.4h-1.6v5.1h-2v-5.1H357v-1.5h1.1v-1.6c0-1.5.9-2.4 2.4-2.4.5 0 .9.1 1.1.2v1.8c-.2-.2-.5-.3-.8-.3-.5 0-.8.4-.8.9v1.4h1.6v1.5zM362.5 557.2c0-1.9 1.5-3.4 3.5-3.4s3.5 1.5 3.5 3.4-1.5 3.4-3.5 3.4-3.5-1.5-3.5-3.4zm5.1 0c0-1-.7-1.7-1.6-1.7s-1.6.7-1.6 1.7.7 1.7 1.6 1.7 1.6-.7 1.6-1.7zM376.1 554.1l-.7 1.7c-.2-.1-.5-.2-.7-.2-.8 0-1.5.7-1.5 1.9v3h-2v-6.6h2v1.1c.4-.7 1-1.2 1.8-1.2.5 0 .8.1 1.1.3zM383.9 550v10.5h-1.8l-.1-.9c-.4.6-1.1 1-2.2 1-1.7 0-3.2-1.4-3.2-3.4s1.5-3.4 3.2-3.4c1 0 1.6.4 2.1.9V550h2zm-1.9 7.2c0-1-.8-1.7-1.7-1.7s-1.7.8-1.7 1.7.7 1.7 1.7 1.7 1.7-.8 1.7-1.7z"/>
  </g>
  <g fill="#4D8E38">
    <path d="M424.5 412.8h-2.7v8.7h-2v-8.7h-2.7V411h7.5v1.8zM432.1 417.3v4.2h-2v-4c0-.6-.4-1-1-1-.7 0-1.2.5-1.2 1.1v3.9h-2V411h2v4.6c.4-.5 1-.8 1.8-.8 1.4 0 2.4 1.1 2.4 2.5zM440.9 414.9v6.6h-1.8l-.1-.9c-.4.6-1.1 1-2.2 1-1.7 0-3.2-1.4-3.2-3.4s1.5-3.4 3.2-3.4c1 0 1.6.4 2.1.9v-.8h2zm-1.8 3.3c0-1-.8-1.7-1.7-1.7-.9 0-1.7.8-1.7 1.7s.7 1.7 1.7 1.7c.9 0 1.7-.8 1.7-1.7zM453.2 417.3v4.2h-2v-4c0-.6-.4-1-1-1-.7 0-1 .5-1 1.1v3.9h-2v-4c0-.6-.4-1-1-1-.7 0-1 .5-1 1.1v3.9h-2v-6.6h2v.7c.4-.5 1-.8 1.6-.8.8 0 1.5.4 1.9 1.1.4-.6 1.1-1.1 2-1.1 1.5 0 2.5 1.1 2.5 2.5zM461.6 418.6h-4.9c.1 1 .8 1.5 1.6 1.5.6 0 1.2-.3 1.5-.9l1.6.6c-.5 1.1-1.6 1.8-3.1 1.8-2.2 0-3.6-1.5-3.6-3.4s1.5-3.4 3.5-3.4c1.9 0 3.4 1.3 3.4 3.3v.5zm-4.8-1.3h2.8c-.2-.6-.6-1-1.3-1-.8 0-1.3.4-1.5 1z"/>
  </g>
  <g fill="#4D8E38">
    <path d="M270.6 394.7c0-3 2.4-5.4 5.4-5.4 3 0 5.4 2.4 5.4 5.4s-2.4 5.4-5.4 5.4c-3 0-5.4-2.4-5.4-5.4zm8.8 0c0-1.9-1.5-3.4-3.4-3.4s-3.4 1.5-3.4 3.4 1.5 3.4 3.4 3.4c1.9.1 3.4-1.4 3.4-3.4zM285.1 396.7l-2.8-3.3h2.4l1.6 2 1.6-2h2.4l-2.8 3.3 2.8 3.3h-2.4l-1.6-2-1.6 2h-2.4l2.8-3.3zM295.6 394.9H294v5.1h-2v-5.1h-1.1v-1.5h1.1v-1.6c0-1.5.9-2.4 2.4-2.4.5 0 .9.1 1.1.2v1.8c-.2-.2-.5-.3-.8-.3-.5 0-.8.4-.8.9v1.4h1.6v1.5zM296.4 396.7c0-1.9 1.5-3.4 3.5-3.4s3.5 1.5 3.5 3.4-1.5 3.4-3.5 3.4-3.5-1.5-3.5-3.4zm5.1 0c0-1-.7-1.7-1.6-1.7s-1.6.7-1.6 1.7.7 1.7 1.6 1.7 1.6-.7 1.6-1.7zM310 393.6l-.7 1.7c-.2-.1-.5-.2-.7-.2-.8 0-1.5.7-1.5 1.9v3h-2v-6.6h2v1.1c.4-.7 1-1.2 1.8-1.2.5 0 .8.1 1.1.3zM317.8 389.5V400H316l-.1-.9c-.4.6-1.1 1-2.2 1-1.7 0-3.2-1.4-3.2-3.4s1.5-3.4 3.2-3.4c1 0 1.6.4 2.1.9v-4.7h2zm-1.9 7.2c0-1-.8-1.7-1.7-1.7-.9 0-1.7.8-1.7 1.7s.7 1.7 1.7 1.7 1.7-.8 1.7-1.7z"/>
  </g>
  <g fill="#4D8E38">
    <path d="M392.9 584.5V595h-2v-4.3h-4.6v4.3h-2v-10.5h2v4.3h4.6v-4.3h2zM401.8 592.1h-4.9c.1 1 .8 1.5 1.6 1.5.6 0 1.2-.3 1.5-.9l1.6.6c-.5 1.1-1.6 1.8-3.1 1.8-2.2 0-3.6-1.5-3.6-3.4s1.5-3.4 3.5-3.4c1.9 0 3.4 1.3 3.4 3.3v.5zm-4.8-1.3h2.8c-.2-.6-.6-1-1.3-1-.8 0-1.3.4-1.5 1zM409.7 590.8v4.2h-2v-4c0-.6-.5-1.1-1.1-1.1-.7 0-1.1.5-1.1 1.1v3.9h-2v-6.6h2v.7c.5-.5 1.1-.8 1.8-.8 1.3.1 2.4 1.2 2.4 2.6zM411.8 584.5h2V595h-2v-10.5zM422.4 592.1h-4.9c.1 1 .8 1.5 1.6 1.5.6 0 1.2-.3 1.5-.9l1.6.6c-.5 1.1-1.6 1.8-3.1 1.8-2.2 0-3.6-1.5-3.6-3.4s1.5-3.4 3.5-3.4c1.9 0 3.4 1.3 3.4 3.3v.5zm-4.8-1.3h2.8c-.2-.6-.6-1-1.3-1-.8 0-1.3.4-1.5 1zM430.9 588.4l-4 9.9h-2l1.3-3.3h-.5l-2.7-6.6h2.2l1.8 5.1 1.8-5.1h2.1zM371.2 608.7c0-1.9 1.5-3.4 3.5-3.4s3.5 1.5 3.5 3.4-1.5 3.4-3.5 3.4-3.5-1.5-3.5-3.4zm5.1 0c0-1-.7-1.7-1.6-1.7s-1.6.7-1.6 1.7.7 1.7 1.6 1.7 1.6-.7 1.6-1.7zM386.1 607.8v4.2h-2v-4c0-.6-.5-1.1-1.1-1.1-.7 0-1.1.5-1.1 1.1v3.9h-2v-6.6h2v.7c.5-.5 1.1-.8 1.8-.8 1.4.1 2.4 1.2 2.4 2.6zM398.7 603.3H396v8.7h-2v-8.7h-2.7v-1.8h7.5v1.8zM406.4 607.8v4.2h-2v-4c0-.6-.4-1-1-1-.7 0-1.2.5-1.2 1.1v3.9h-2v-10.5h2v4.6c.4-.5 1-.8 1.8-.8 1.4 0 2.4 1.1 2.4 2.5zM415.2 605.4v6.6h-1.8l-.1-.9c-.4.6-1.1 1-2.2 1-1.7 0-3.2-1.4-3.2-3.4s1.5-3.4 3.2-3.4c1 0 1.6.4 2.1.9v-.8h2zm-1.9 3.3c0-1-.8-1.7-1.7-1.7-.9 0-1.7.8-1.7 1.7s.7 1.7 1.7 1.7 1.7-.8 1.7-1.7zM427.4 607.8v4.2h-2v-4c0-.6-.4-1-1-1-.7 0-1 .5-1 1.1v3.9h-2v-4c0-.6-.4-1-1-1-.7 0-1 .5-1 1.1v3.9h-2v-6.6h2v.7c.4-.5 1-.8 1.6-.8.8 0 1.5.4 1.9 1.1.4-.6 1.1-1.1 2-1.1 1.5 0 2.5 1.1 2.5 2.5zM435.8 609.1h-4.9c.1 1 .8 1.5 1.6 1.5.6 0 1.2-.3 1.5-.9l1.6.6c-.5 1.1-1.6 1.8-3.1 1.8-2.2 0-3.6-1.5-3.6-3.4s1.5-3.4 3.5-3.4c1.9 0 3.4 1.3 3.4 3.3v.5zm-4.8-1.3h2.8c-.2-.6-.6-1-1.3-1-.7 0-1.3.4-1.5 1zM436.9 611.3l.8-1.3c.5.4 1.4.7 2.1.7.6 0 .9-.2.9-.6 0-.5-.7-.5-1.6-.8-.9-.3-2-.7-2-1.9 0-1.4 1.3-2 2.8-2 .9 0 1.8.3 2.5.7l-.8 1.2c-.5-.3-1.3-.5-1.8-.5s-.8.2-.8.5c0 .5.7.6 1.5.8 1.2.3 2.1.8 2.1 2 0 1.4-1.1 2.2-2.8 2.2-1.2-.2-2.3-.6-2.9-1z"/>
  </g>
  <g fill="#4D8E38">
    <path d="M86.3 367.5L82.4 378h-2.1l-1.3-3.4-1.4 3.4h-2.1l-3.9-10.5h2.2l2.8 8.2 1.3-3.5-1.9-4.7h2l.8 2.1.8-2.1h2l-1.9 4.7 1.3 3.5 2.8-8.2h2.5zM87.5 369.2c0-.6.5-1.1 1.1-1.1.6 0 1.1.5 1.1 1.1 0 .6-.5 1.1-1.1 1.1-.6 0-1.1-.5-1.1-1.1zm.1 2.2h2v6.6h-2v-6.6zM95.6 372.9h-1.2v5.1h-2v-5.1h-1.2v-1.5h1.2V369h2v2.4h1.2v1.5zM103.3 373.8v4.2h-2v-4c0-.6-.5-1.1-1.1-1.1-.7 0-1.1.5-1.1 1.1v3.9h-2v-6.6h2v.7c.5-.5 1.1-.8 1.8-.8 1.3.1 2.4 1.2 2.4 2.6zM111.7 375.1h-4.9c.1 1 .8 1.5 1.6 1.5.6 0 1.2-.3 1.5-.9l1.6.6c-.5 1.1-1.6 1.8-3.1 1.8-2.2 0-3.6-1.5-3.6-3.4s1.5-3.4 3.5-3.4c1.9 0 3.4 1.3 3.4 3.3v.5zm-4.8-1.3h2.8c-.2-.6-.6-1-1.3-1-.8 0-1.3.4-1.5 1zM120.2 371.4l-4 9.9h-2l1.3-3.3h-.5l-2.7-6.6h2.2l1.8 5.1 1.8-5.1h2.1z"/>
  </g>
  <g fill="#4D8E38">
    <path d="M171.3 339.5l-4.1-4.9v4.9h-2V329h2v4.8l4-4.8h2.6l-4.5 5.2 4.6 5.3h-2.6zM175.4 330.7c0-.6.5-1.1 1.1-1.1.6 0 1.1.5 1.1 1.1 0 .6-.5 1.1-1.1 1.1-.6 0-1.1-.5-1.1-1.1zm.1 2.2h2v6.6h-2v-6.6zM186.4 329v10.5h-1.8l-.1-.9c-.4.6-1.1 1-2.2 1-1.7 0-3.2-1.4-3.2-3.4s1.5-3.4 3.2-3.4c1 0 1.6.4 2.1.9V329h2zm-1.8 7.2c0-1-.8-1.7-1.7-1.7-.9 0-1.7.8-1.7 1.7s.7 1.7 1.7 1.7c.9 0 1.7-.8 1.7-1.7zM188.7 329h2v10.5h-2V329zM192.9 330.7c0-.6.5-1.1 1.1-1.1.6 0 1.1.5 1.1 1.1 0 .6-.5 1.1-1.1 1.1-.6 0-1.1-.5-1.1-1.1zm.1 2.2h2v6.6h-2v-6.6zM203.5 335.3v4.2h-2v-4c0-.6-.5-1.1-1.1-1.1-.7 0-1.1.5-1.1 1.1v3.9h-2v-6.6h2v.7c.5-.5 1.1-.8 1.8-.8 1.3.1 2.4 1.2 2.4 2.6zM212.3 332.9v6.3c0 2.4-1.6 3.7-3.7 3.7-1.1 0-2.5-.4-3.3-1.5l1.1-1.2c.7.7 1.4 1 2.1 1 1.1 0 1.8-.7 1.8-2v-.6c-.4.5-1.1 1-2 1-1.8 0-3.2-1.4-3.2-3.4s1.4-3.4 3.2-3.4c1 0 1.6.4 2.1 1v-.8h1.9zm-1.9 3.3c0-1-.8-1.7-1.7-1.7-1 0-1.7.8-1.7 1.7 0 1 .7 1.7 1.7 1.7s1.7-.8 1.7-1.7zM218.3 334.4H217v5.1h-2v-5.1h-1.2v-1.5h1.2v-2.4h2v2.4h1.2v1.5zM219.1 336.2c0-1.9 1.5-3.4 3.5-3.4s3.5 1.5 3.5 3.4-1.5 3.4-3.5 3.4-3.5-1.5-3.5-3.4zm5.2 0c0-1-.7-1.7-1.6-1.7s-1.6.7-1.6 1.7.7 1.7 1.6 1.7 1.6-.7 1.6-1.7zM234.1 335.3v4.2h-2v-4c0-.6-.5-1.1-1.1-1.1-.7 0-1.1.5-1.1 1.1v3.9h-2v-6.6h2v.7c.5-.5 1.1-.8 1.8-.8 1.3.1 2.4 1.2 2.4 2.6z"/>
  </g>
  <g fill="#4D8E38">
    <path d="M294.6 262.7c0 1.8-1.4 2.8-3.1 2.8h-4.7V255h4.1c1.7 0 3.1 1.1 3.1 2.9 0 1.1-.5 1.8-1.3 2.3 1.2.3 1.9 1.1 1.9 2.5zm-3.9-5.9h-1.9v2.6h1.9c.7 0 1.3-.6 1.3-1.3.1-.8-.5-1.3-1.3-1.3zm1.9 5.6c0-.7-.6-1.3-1.3-1.3h-2.4v2.6h2.4c.7 0 1.3-.6 1.3-1.3zM296.3 256.7c0-.6.5-1.1 1.1-1.1.6 0 1.1.5 1.1 1.1 0 .6-.5 1.1-1.1 1.1-.6 0-1.1-.5-1.1-1.1zm.1 2.2h2v6.6h-2v-6.6zM300.1 262.2c0-1.9 1.5-3.4 3.5-3.4 1.4 0 2.7.8 3.2 2.1l-1.6.7c-.3-.6-.8-1-1.5-1-.9 0-1.7.7-1.7 1.7 0 .9.7 1.6 1.7 1.6.7 0 1.3-.4 1.5-1l1.6.7c-.5 1.2-1.7 2.1-3.2 2.1-2-.1-3.5-1.6-3.5-3.5zM314.7 262.6h-4.9c.1 1 .8 1.5 1.6 1.5.6 0 1.2-.3 1.5-.9l1.6.6c-.5 1.1-1.6 1.8-3.1 1.8-2.2 0-3.6-1.5-3.6-3.4s1.5-3.4 3.5-3.4c1.9 0 3.4 1.3 3.4 3.3v.5zm-4.8-1.3h2.8c-.2-.6-.6-1-1.3-1-.8 0-1.3.4-1.5 1zM315.8 264.8l.8-1.3c.5.4 1.4.7 2.1.7.6 0 .9-.2.9-.6 0-.5-.7-.5-1.6-.8-.9-.3-2-.7-2-1.9 0-1.4 1.3-2 2.8-2 .9 0 1.8.3 2.5.7l-.8 1.2c-.5-.3-1.3-.5-1.8-.5s-.8.2-.8.5c0 .5.7.6 1.5.8 1.2.3 2.1.8 2.1 2 0 1.4-1.1 2.2-2.8 2.2-1.3-.2-2.3-.6-2.9-1zM326.9 260.4h-1.2v5.1h-2v-5.1h-1.2v-1.5h1.2v-2.4h2v2.4h1.2v1.5zM334.7 262.6h-4.9c.1 1 .8 1.5 1.6 1.5.6 0 1.2-.3 1.5-.9l1.6.6c-.5 1.1-1.6 1.8-3.1 1.8-2.2 0-3.6-1.5-3.6-3.4s1.5-3.4 3.5-3.4c1.9 0 3.4 1.3 3.4 3.3v.5zm-4.9-1.3h2.8c-.2-.6-.6-1-1.3-1-.7 0-1.2.4-1.5 1zM341.2 259.1l-.7 1.7c-.2-.1-.5-.2-.7-.2-.8 0-1.5.7-1.5 1.9v3h-2v-6.6h2v1.1c.4-.7 1-1.2 1.8-1.2.5 0 .9.1 1.1.3z"/>
  </g>
  <g fill="#4D8E38">
    <path d="M58.4 228.2c0-3 2.4-5.4 5.4-5.4 1.6 0 3.1.7 4.1 1.9l-1.5 1.2c-.6-.8-1.6-1.2-2.6-1.2-1.9 0-3.4 1.5-3.4 3.5s1.5 3.5 3.4 3.5c1 0 2-.4 2.6-1.2l1.5 1.2c-1 1.2-2.5 1.9-4.1 1.9-3 0-5.4-2.4-5.4-5.4zM75.7 229.3v4.2h-2v-4c0-.6-.4-1-1-1-.7 0-1.2.5-1.2 1.1v3.9h-2V223h2v4.6c.4-.5 1-.8 1.8-.8 1.3 0 2.4 1.1 2.4 2.5zM77.7 224.7c0-.6.5-1.1 1.1-1.1.6 0 1.1.5 1.1 1.1 0 .6-.5 1.1-1.1 1.1-.6 0-1.1-.5-1.1-1.1zm.1 2.2h2v6.6h-2v-6.6zM89.3 230.2c0 2-1.5 3.4-3.2 3.4-1 0-1.6-.4-2.1-.9v4.1h-2v-9.9h1.8l.1.9c.4-.6 1.1-1 2.2-1 1.7 0 3.2 1.4 3.2 3.4zm-2 0c0-1-.7-1.7-1.7-1.7-.9 0-1.7.8-1.7 1.7s.8 1.7 1.7 1.7c1 0 1.7-.7 1.7-1.7zM98.2 230.2c0 2-1.5 3.4-3.2 3.4-1 0-1.6-.4-2.1-.9v4.1h-2v-9.9h1.8l.1.9c.4-.6 1.1-1 2.2-1 1.8 0 3.2 1.4 3.2 3.4zm-1.9 0c0-1-.7-1.7-1.7-1.7-.9 0-1.7.8-1.7 1.7s.8 1.7 1.7 1.7c.9 0 1.7-.7 1.7-1.7zM99.9 224.7c0-.6.5-1.1 1.1-1.1.6 0 1.1.5 1.1 1.1 0 .6-.5 1.1-1.1 1.1-.6 0-1.1-.5-1.1-1.1zm.1 2.2h2v6.6h-2v-6.6zM110.4 229.3v4.2h-2v-4c0-.6-.5-1.1-1.1-1.1-.7 0-1.1.5-1.1 1.1v3.9h-2v-6.6h2v.7c.5-.5 1.1-.8 1.8-.8 1.4.1 2.4 1.2 2.4 2.6zM119.3 226.9v6.3c0 2.4-1.6 3.7-3.7 3.7-1.1 0-2.5-.4-3.3-1.5l1.1-1.2c.7.7 1.4 1 2.1 1 1.1 0 1.8-.7 1.8-2v-.6c-.4.5-1.1 1-2 1-1.8 0-3.2-1.4-3.2-3.4s1.4-3.4 3.2-3.4c1 0 1.6.4 2.1 1v-.8h1.9zm-1.9 3.3c0-1-.8-1.7-1.7-1.7-1 0-1.7.8-1.7 1.7 0 1 .7 1.7 1.7 1.7.9 0 1.7-.8 1.7-1.7zM134.5 223v10.5H133l-5.4-7v7h-2V223h1.5l5.4 6.9V223h2zM136.4 230.2c0-1.9 1.5-3.4 3.5-3.4s3.5 1.5 3.5 3.4-1.5 3.4-3.5 3.4-3.5-1.5-3.5-3.4zm5.1 0c0-1-.7-1.7-1.6-1.7s-1.6.7-1.6 1.7.7 1.7 1.6 1.7 1.6-.7 1.6-1.7zM150 227.1l-.7 1.7c-.2-.1-.5-.2-.7-.2-.8 0-1.5.7-1.5 1.9v3h-2v-6.6h2v1.1c.4-.7 1-1.2 1.8-1.2.5 0 .8.1 1.1.3zM155.4 228.4h-1.2v5.1h-2v-5.1H151v-1.5h1.2v-2.4h2v2.4h1.2v1.5zM156.3 230.2c0-1.9 1.5-3.4 3.5-3.4s3.5 1.5 3.5 3.4-1.5 3.4-3.5 3.4-3.5-1.5-3.5-3.4zm5.1 0c0-1-.7-1.7-1.6-1.7s-1.6.7-1.6 1.7.7 1.7 1.6 1.7 1.6-.7 1.6-1.7zM171.2 229.3v4.2h-2v-4c0-.6-.5-1.1-1.1-1.1-.7 0-1.1.5-1.1 1.1v3.9h-2v-6.6h2v.7c.5-.5 1.1-.8 1.8-.8 1.3.1 2.4 1.2 2.4 2.6z"/>
  </g>
  <g fill="#4D8E38">
    <path d="M160.6 100.7c0 1.8-1.4 2.8-3.1 2.8h-4.7V93h4.1c1.7 0 3.1 1.1 3.1 2.9 0 1.1-.5 1.8-1.3 2.3 1.2.3 1.9 1.1 1.9 2.5zm-3.8-5.9h-1.9v2.6h1.9c.7 0 1.3-.6 1.3-1.3.1-.8-.5-1.3-1.3-1.3zm1.9 5.6c0-.7-.6-1.3-1.3-1.3H155v2.6h2.4c.7 0 1.3-.6 1.3-1.3zM169.2 96.9v6.6h-1.8l-.1-.9c-.4.6-1.1 1-2.2 1-1.7 0-3.2-1.4-3.2-3.4s1.5-3.4 3.2-3.4c1 0 1.6.4 2.1.9v-.8h2zm-1.9 3.3c0-1-.8-1.7-1.7-1.7-.9 0-1.7.8-1.7 1.7s.7 1.7 1.7 1.7 1.7-.8 1.7-1.7zM177.7 99.3v4.2h-2v-4c0-.6-.5-1.1-1.1-1.1-.7 0-1.1.5-1.1 1.1v3.9h-2v-6.6h2v.7c.5-.5 1.1-.8 1.8-.8 1.3.1 2.4 1.2 2.4 2.6zM187 100.2c0 2-1.5 3.4-3.2 3.4-1 0-1.7-.4-2.2-1l-.1.9h-1.8V93h2v4.7c.5-.5 1.1-.9 2.1-.9 1.8-.1 3.2 1.4 3.2 3.4zm-2 0c0-1-.7-1.7-1.7-1.7s-1.7.8-1.7 1.7.8 1.7 1.7 1.7 1.7-.8 1.7-1.7zM188.6 101v-4.1h2v3.9c0 .7.4 1.1 1 1.1s1.1-.4 1.1-1.1v-3.9h2v4.1c0 1.6-1.1 2.6-3 2.6-2 0-3.1-1-3.1-2.6zM201.6 97.1l-.7 1.7c-.2-.1-.5-.2-.7-.2-.8 0-1.5.7-1.5 1.9v3h-2v-6.6h2V98c.4-.7 1-1.2 1.8-1.2.5 0 .8.1 1.1.3zM210.2 96.9l-4 9.9h-2l1.3-3.3h-.5l-2.7-6.6h2.2l1.8 5.1 1.8-5.1h2.1z"/>
  </g>
</svg>
