<svg xmlns="http://www.w3.org/2000/svg" fill="none" viewBox="0 0 196 65"><path fill="#fff" d="M64.006 32c0-17.673-14.328-32-32.003-32S0 14.327 0 32c0 17.68 14.328 32.007 32.003 32.007S64.006 49.678 64.006 32zm-11.008 4.634c0 13.177-10.684 23.861-23.862 23.861-13.179 0-23.862-10.685-23.862-23.861 0-13.178 10.684-23.861 23.862-23.861 13.178 0 23.862 10.683 23.862 23.86z"/><path fill="#fff" d="M48.152 40.854v-4.306c0-1.183-.763-2.185-2.05-2.185-.867 0-1.45.389-1.78.838v-.015c-.209-.464-.553-.673-1.061-.673h-.046c-.492 0-.763.27-.763.763v5.578c0 .674.36 1.033 1.033 1.033h.03c.657 0 1.016-.359 1.016-1.033v-3.679c0-.537.225-.925.779-.925.552 0 .762.388.762.925v3.68c0 .673.36 1.032 1.033 1.032h.03c.657 0 1.017-.359 1.017-1.033zm-7.016-1.36v-2.587c0-1.438-1.032-2.544-2.827-2.544s-2.827 1.107-2.827 2.544v2.588c0 1.435 1.032 2.541 2.827 2.541 1.796 0 2.827-1.106 2.827-2.541zm-2.079-.12c0 .448-.12.912-.748.912s-.748-.464-.748-.912v-2.347c0-.45.12-.913.748-.913.629 0 .748.463.748.913v2.347zm-.433-16.253c.12-.598-.18-.958-.778-.958h-.179c-.643 0-.883.314-.988.958l-.493 2.873-.658-3.068c-.105-.508-.419-.762-.942-.762h-.03c-.538 0-.852.254-.972.762l-.718 3.068-.419-2.798c-.105-.688-.374-1.032-1.062-1.032h-.255c-.643 0-.972.388-.837 1.032l1.121 5.326c.136.672.555 1.016 1.257 1.016h.03c.687 0 1.107-.344 1.242-1.016l.568-2.769.597 2.843c.135.627.509.942 1.167.942h.03c.643 0 1.017-.315 1.151-.942l1.168-5.475zm-8.99 8.296h-.03c-.674 0-1.032.358-1.032 1.032v8.765c0 .434.24.673.672.673h.03c.463 0 .822-.15 1.152-.478l.09-.092c.224.3.687.72 1.6.72 1.287 0 2.153-1.002 2.153-2.184v-3.305c0-1.183-.762-2.185-2.048-2.185-.778 0-1.331.42-1.556.72v-2.634c0-.674-.358-1.032-1.031-1.032zm1.017 5.758c0-.537.224-.925.778-.925s.763.388.763.925v2.05c0 .538-.21.927-.763.927-.554 0-.778-.39-.778-.927v-2.05zm-1.272-10.03v-2.587c0-1.437-1.031-2.544-2.826-2.544-1.796 0-2.827 1.108-2.827 2.544v2.587c0 1.436 1.031 2.541 2.827 2.541 1.795 0 2.826-1.105 2.826-2.54zm-2.08-.119c0 .448-.119.911-.747.911-.629 0-.748-.463-.748-.91v-2.35c0-.45.12-.912.748-.912s.748.463.748.912v2.35zm-4.336 19.687c-.778 0-1.331.419-1.556.717v-2.633c0-.672-.359-1.03-1.032-1.03h-.03c-.673 0-1.031.358-1.031 1.03v8.407c0 .674.358 1.032 1.031 1.032h.03c.658 0 1.017-.358 1.017-1.032v-3.68c0-.537.224-.927.778-.927s.763.39.763.927v3.68c0 .674.358 1.032 1.032 1.032h.03c.658 0 1.017-.358 1.017-1.032v-4.309c0-1.18-.762-2.182-2.05-2.182zm-.09-17.833v-.42c0-.523-.285-.568-.554-.568h-.044c-.105 0-.135-.045-.135-.15V20.1c0-.673-.343-1.033-1.018-1.033h-.029c-.673 0-1.032.359-1.032 1.033v8.091c0 .75.39 1.347 1.437 1.347h.672c.418 0 .703-.135.703-.658zm-3.291 5.483c-1.794 0-2.707 1.019-2.707 2.095v.343c0 .208.12.328.329.328h1.39c.12 0 .196-.073.196-.194v-.225c0-.342.223-.597.672-.597.359 0 .644.15.644.597v.331l-1.691.627c-1.257.465-1.72 1.197-1.72 2.124v.166c0 .957.658 2.078 2.154 2.078.718 0 1.257-.225 1.585-.585.255.316.659.435 1.122.435h.494c.3 0 .464-.165.464-.464v-.913c0-.194-.105-.299-.299-.299h-.03v-3.573c0-1.287-.823-2.274-2.603-2.274zm.525 5.356c0 .448-.286.686-.704.686-.45 0-.628-.358-.628-.671 0-.405.21-.688.643-.883l.689-.298v1.166zm-4.399.18v-.45c0-.27-.15-.42-.418-.42h-1.272c-.21 0-.314.104-.314.299v.344c0 .209-.104.613-.733.613s-.748-.403-.748-.852v-2.468c0-.45.12-.852.748-.852.629 0 .733.402.733.612v.33c0 .21.104.315.314.315h1.272c.268 0 .418-.15.418-.42v-.449c0-1.258-.927-2.14-2.752-2.14-1.81 0-2.811 1.108-2.811 2.545v2.587c0 1.435 1 2.542 2.811 2.542 1.826.001 2.767-.882 2.752-2.137zm9.125 1.988c.658 0 1.017-.359 1.017-1.033v-3.649c0-.403.21-.567.448-.567.284 0 .374.178.674.178.328 0 .493-.209.493-.597V35.14c0-.418-.27-.627-.658-.627-.479 0-.972.33-1.316.837l-.075-.21c-.18-.418-.48-.627-.927-.627h-.031c-.448 0-.688.239-.688.673v5.668c0 .674.36 1.033 1.032 1.033h.031zm1.6 5.993v4.337c0 1.181.673 2.17 1.959 2.17.613 0 1.272-.27 1.66-.794l.015.016c.285.433.658.627 1.182.627h.03c.493 0 .763-.268.763-.764V47.88c0-.659-.359-1.019-1.017-1.019h-.03c-.673 0-1.032.36-1.032 1.019v3.664c0 .538-.18.883-.733.883-.553 0-.718-.345-.718-.883V47.88c0-.659-.359-1.019-1.017-1.019h-.031c-.673 0-1.032.36-1.032 1.019zm7.09-3.083v8.768c0 .432.24.67.673.67h.03c.463 0 .822-.147 1.15-.478l.091-.088c.224.298.688.717 1.6.717 1.287 0 2.155-1.001 2.155-2.184v-3.306c0-1.182-.764-2.183-2.05-2.183-.778 0-1.332.419-1.556.717v-2.633c0-.672-.358-1.03-1.031-1.03h-.03c-.674-.001-1.032.357-1.032 1.03zm2.079 4.727c0-.537.224-.927.778-.927.552 0 .763.39.763.927v2.05c0 .539-.21.928-.763.928-.554 0-.778-.39-.778-.928v-2.05zM73.763 25.919c0-.644.357-1.001 1.025-1.001h.048c.643 0 1 .357 1 1v1.86c0 1.956-1.049 3.267-3.075 3.267-2.073 0-3.242-1.31-3.242-3.266V17.288c0-1.956 1.168-3.267 3.242-3.267 2.026 0 3.075 1.311 3.075 3.267v1.455c0 .666-.357 1.024-1 1.024h-.048c-.668 0-1.025-.357-1.025-1.024v-1.527c0-.62-.239-1.263-1.002-1.263-.786 0-1 .644-1 1.263V27.85c0 .619.214 1.263 1 1.263.763 0 1.002-.644 1.002-1.263v-1.931zM79.268 21.913v7.94c0 .643-.38 1.025-1.024 1.025h-.048c-.643 0-1.025-.381-1.025-1.025V19.84c0-.453.262-.716.715-.716h.048c.477 0 .786.215.93.691l.072.215c.262-.524.69-.906 1.167-.906.478 0 .859.31.859.882v.74c0 .476-.382.786-.907.668-.572-.12-.787.022-.787.5zM81.844 27.97v-5.937c0-2.027 1.24-3.076 2.932-3.076 1.717 0 2.837 1.05 2.837 3.076v2.479c0 .524-.287.81-.834.81h-2.837v2.766c0 .668.191 1.144.834 1.144.644 0 .811-.477.811-.977v-.882c0-.525.285-.81.834-.81h.334c.55 0 .834.285.834.81v1.025c0 1.765-1.072 2.647-2.788 2.647-1.717 0-2.957-1.05-2.957-3.076zm2.098-6.033v1.86h1.669v-1.86c0-.643-.19-1.168-.835-1.168-.643 0-.834.525-.834 1.168zM90.975 31.045c-1.525 0-2.336-1.145-2.336-2.79v-.525c0-1.358.357-2.384 1.526-3.17l2.121-1.454v-1.502c0-.573-.286-.835-.74-.835-.5 0-.761.335-.761.858v.834c0 .502-.287.787-.787.787h-.333c-.525 0-.81-.286-.81-.81v-.859c0-1.62 1.072-2.622 2.836-2.622 1.716 0 2.694 1.026 2.694 2.647v7.533c0 .453.405.072.405.382v.978c0 .285-.167.38-.43.38h-.738c-.5 0-.881-.285-.977-.691-.287.454-.788.859-1.67.859zm.524-1.765c.5 0 .787-.358.787-1.073v-3.146l-.858.69c-.478.383-.668.812-.668 1.575v1c0 .548.19.954.739.954zM98.89 30.877h-1.002c-.93 0-1.573-.453-1.573-1.573v-8.463h-.024c-.525 0-.835-.31-.835-.835v-.048c0-.523.309-.834.835-.834h.024v-3.91c0-.644.38-1.025 1.048-1.025h.047c.645 0 1.002.381 1.002 1.025v3.91h.334c.526 0 .835.31.835.834v.048c0 .525-.31.835-.835.835h-.334v8.105c0 .167.073.215.214.215h.335c.405 0 .62.19.62.644v.38c0 .455-.286.692-.691.692zM102.632 16.62c0 .645-.382 1.026-1.026 1.026h-.047c-.644 0-1.027-.381-1.027-1.025v-1.407c0-.644.383-1.025 1.027-1.025h.047c.643 0 1.026.381 1.026 1.025v1.407zm0 13.233c0 .643-.382 1.025-1.026 1.025h-.047c-.644 0-1.027-.381-1.027-1.025v-9.704c0-.643.383-1.025 1.027-1.025h.047c.643 0 1.026.382 1.026 1.026v9.703zM106.328 22.08v7.773c0 .643-.383 1.025-1.026 1.025h-.048c-.644 0-1.025-.381-1.025-1.025v-9.966c0-.478.287-.763.786-.763h.048c.501 0 .835.239 1.001.739l.048.167c.309-.549.906-1.073 1.836-1.073 1.24 0 2.169.93 2.169 2.718v8.178c0 .643-.381 1.025-1.026 1.025h-.045c-.644 0-1.027-.381-1.027-1.025V22.08c0-.691-.261-1.144-.834-1.144-.597 0-.857.453-.857 1.144zM114.407 32.88c.644 0 .955-.452.955-1.192v-2.336c-.238.358-.739.811-1.574.811-1.216 0-2.216-.883-2.216-2.742v-5.746c0-1.788 1-2.717 2.239-2.717.931 0 1.479.548 1.717.977l.048-.12c.215-.452.549-.69 1.073-.69h.049c.475 0 .761.285.761.762V31.64c0 1.98-1.288 3.052-3.002 3.052-1.766 0-2.933-1-2.933-2.74v-.193c0-.62.333-.953.953-.953h.07c.621 0 .931.333.931.953v.144c.001.524.287.977.929.977zm.119-4.696c.597 0 .835-.477.835-1.192v-4.864c0-.74-.238-1.191-.835-1.191-.618 0-.858.452-.858 1.19v4.865c.001.715.24 1.192.858 1.192zM121.655 27.97v-5.937c0-2.027 1.239-3.076 2.932-3.076 1.716 0 2.838 1.05 2.838 3.076v2.479c0 .524-.286.81-.835.81h-2.837v2.766c0 .668.191 1.144.835 1.144.644 0 .811-.477.811-.977v-.882c0-.525.286-.81.834-.81h.335c.548 0 .833.285.833.81v1.025c0 1.765-1.072 2.647-2.788 2.647-1.719 0-2.958-1.05-2.958-3.076zm2.098-6.033v1.86h1.669v-1.86c0-.643-.19-1.168-.835-1.168-.644 0-.834.525-.834 1.168zM130.928 22.08v7.773c0 .643-.382 1.025-1.025 1.025h-.047c-.644 0-1.026-.381-1.026-1.025v-9.966c0-.478.286-.763.787-.763h.048c.501 0 .835.239 1.001.739l.047.167c.31-.549.906-1.073 1.836-1.073 1.24 0 2.169.93 2.169 2.718v8.178c0 .643-.382 1.025-1.025 1.025h-.047c-.643 0-1.027-.381-1.027-1.025V22.08c0-.691-.261-1.144-.834-1.144-.593 0-.857.453-.857 1.144zM136.126 27.97v-5.937c0-2.027 1.24-3.076 2.932-3.076 1.716 0 2.837 1.05 2.837 3.076v2.479c0 .524-.287.81-.835.81h-2.835v2.766c0 .668.19 1.144.834 1.144.643 0 .81-.477.81-.977v-.882c0-.525.287-.81.836-.81h.334c.547 0 .833.285.833.81v1.025c0 1.765-1.072 2.647-2.789 2.647-1.716 0-2.957-1.05-2.957-3.076zm2.099-6.033v1.86h1.668v-1.86c0-.643-.191-1.168-.835-1.168-.643 0-.833.525-.833 1.168zM145.375 21.913v7.94c0 .643-.38 1.025-1.025 1.025h-.047c-.644 0-1.026-.381-1.026-1.025V19.84c0-.453.263-.716.716-.716h.048c.476 0 .786.215.93.691l.071.215c.261-.524.691-.906 1.168-.906s.859.31.859.882v.74c0 .476-.381.786-.907.668-.572-.12-.787.022-.787.5zM150.811 32.88c.643 0 .954-.452.954-1.192v-2.336c-.239.358-.739.811-1.575.811-1.216 0-2.217-.883-2.217-2.742v-5.746c0-1.788 1.001-2.717 2.242-2.717.928 0 1.478.548 1.715.977l.049-.12c.214-.452.548-.69 1.073-.69h.046c.478 0 .764.285.764.762V31.64c0 1.98-1.288 3.052-3.005 3.052-1.764 0-2.932-1-2.932-2.74v-.193c0-.62.334-.953.954-.953h.072c.618 0 .929.333.929.953v.144c.001.524.287.977.931.977zm.118-4.696c.597 0 .836-.477.836-1.192v-4.864c0-.74-.239-1.191-.836-1.191-.617 0-.858.452-.858 1.19v4.865c0 .715.24 1.192.858 1.192zM155.699 34.452c-.405 0-.692-.238-.692-.69v-.406c0-.453.216-.619.619-.619h.573c.453 0 .524-.238.572-.644l.12-.906-1.931-11.037c-.119-.62.237-1.026.883-1.026h.19c.691 0 1 .358 1.097 1.05l.905 6.77.931-6.866c.095-.62.357-.954 1.001-.954h.166c.597 0 .906.382.811.978l-2.123 12.659c-.213 1.263-.786 1.691-2.049 1.691h-1.073zM166.903 30.877h-.048c-.693 0-1.073-.357-1.168-1.05l-1.287-9.655c-.095-.643.286-1.049.929-1.049h.119c.691 0 .977.358 1.05 1.05l.573 6.341.928-6.58c.073-.525.406-.81.953-.81H169c.526 0 .859.285.93.81l.907 6.604.643-6.46c.071-.621.334-.955.955-.955h.142c.595 0 .906.358.834.954l-1.31 9.799c-.095.667-.478 1-1.121 1h-.047c-.668 0-1.051-.333-1.145-1l-.858-5.937-.835 5.889c-.096.692-.5 1.049-1.192 1.049zM174.437 27.97v-5.937c0-2.027 1.238-3.076 2.929-3.076 1.719 0 2.84 1.05 2.84 3.076v2.479c0 .524-.287.81-.835.81h-2.836v2.766c0 .668.189 1.144.832 1.144.645 0 .813-.477.813-.977v-.882c0-.525.285-.81.832-.81h.336c.548 0 .834.285.834.81v1.025c0 1.765-1.072 2.647-2.788 2.647-1.719 0-2.957-1.05-2.957-3.076zm2.098-6.033v1.86h1.667v-1.86c0-.643-.19-1.168-.836-1.168-.642 0-.831.525-.831 1.168zM72.332 42.511c-.643 0-.834.477-.834 1.145v6.174c0 .668.19 1.143.834 1.143.644 0 .812-.475.812-.976v-1c0-.62.356-.955.976-.955h.048c.619 0 .977.335.977.954v1.144c0 1.716-1.097 2.645-2.814 2.645-1.716 0-2.932-1.048-2.932-3.075v-5.936c0-2.026 1.216-3.076 2.932-3.076 1.717 0 2.814.882 2.814 2.647v.858c0 .62-.358.954-.977.954h-.048c-.62 0-.977-.333-.977-.954v-.715c0-.5-.167-.977-.811-.977zM78.269 52.785c-1.526 0-2.336-1.143-2.336-2.787v-.525c0-1.358.357-2.384 1.525-3.17l2.122-1.454v-1.502c0-.574-.286-.836-.74-.836-.5 0-.763.334-.763.858v.835c0 .501-.285.787-.786.787h-.333c-.525 0-.811-.286-.811-.81v-.859c0-1.622 1.073-2.622 2.837-2.622 1.716 0 2.694 1.025 2.694 2.646v7.534c0 .452.405.07.405.38v.977c0 .287-.166.383-.43.383h-.738c-.5 0-.883-.287-.978-.693-.285.454-.786.858-1.668.858zm.525-1.762c.5 0 .786-.36.786-1.074v-3.146l-.859.691c-.477.382-.667.81-.667 1.574v1.001c0 .548.19.953.74.953zM85.277 43.822v7.773c0 .642-.38 1.025-1.025 1.025h-.048c-.643 0-1.025-.383-1.025-1.025v-9.966c0-.478.286-.763.786-.763h.048c.5 0 .835.239 1.002.74l.047.166c.31-.549.905-1.073 1.835-1.073 1.24 0 2.17.93 2.17 2.717v8.179c0 .642-.383 1.025-1.025 1.025h-.048c-.644 0-1.026-.383-1.026-1.025v-7.773c0-.691-.262-1.145-.834-1.145-.594 0-.857.454-.857 1.145zM94.67 52.785c-1.526 0-2.337-1.143-2.337-2.787v-.525c0-1.358.358-2.384 1.526-3.17l2.12-1.454v-1.502c0-.574-.285-.836-.738-.836-.501 0-.763.334-.763.858v.835c0 .501-.286.787-.786.787h-.335c-.523 0-.81-.286-.81-.81v-.859c0-1.622 1.073-2.622 2.838-2.622 1.716 0 2.694 1.025 2.694 2.646v7.534c0 .452.407.07.407.38v.977c0 .287-.168.383-.43.383h-.74c-.5 0-.882-.287-.977-.693-.287.454-.787.858-1.67.858zm.523-1.762c.501 0 .787-.36.787-1.074v-3.146l-.858.691c-.476.382-.668.81-.668 1.574v1.001c0 .548.192.953.74.953zM101.797 52.62h-.668c-.929 0-1.573-.453-1.573-1.575V36.956c0-.643.38-1.025 1.025-1.025h.048c.644 0 1.026.381 1.026 1.025V50.69c0 .167.095.213.238.213h.047c.335 0 .55.167.55.62v.405c0 .454-.287.693-.693.693zM105.469 52.62h-.667c-.931 0-1.573-.453-1.573-1.575V36.956c0-.643.38-1.025 1.023-1.025h.049c.643 0 1.025.381 1.025 1.025V50.69c0 .167.095.213.237.213h.049c.334 0 .549.167.549.62v.405c.001.454-.286.693-.692.693zM111.691 42.583v9.012c0 .642-.381 1.025-1.024 1.025h-.048c-.644 0-1.026-.383-1.026-1.025v-9.012h-.143c-.524 0-.835-.31-.835-.835V41.7c0-.525.312-.835.835-.835h.143v-2.55c0-1.74 1.026-2.622 2.408-2.622 1.335 0 2.216.81 2.216 2.215v.765c0 .452-.26.714-.715.714h-.357c-.453 0-.715-.261-.715-.714v-.765c0-.285-.19-.405-.357-.405-.191 0-.383.12-.383.405v2.957h.525c.525 0 .836.31.836.835v.048c0 .524-.311.835-.836.835h-.524zM113.74 49.71v-5.936c0-2.026 1.241-3.075 2.933-3.075 1.717 0 2.838 1.05 2.838 3.075v2.48c0 .525-.287.809-.835.809h-2.837v2.767c0 .668.191 1.143.834 1.143.644 0 .811-.475.811-.976v-.884c0-.523.285-.809.834-.809h.333c.55 0 .835.287.835.809v1.026c0 1.765-1.072 2.645-2.788 2.645-1.717.002-2.958-1.047-2.958-3.074zm2.099-6.032v1.861h1.668v-1.86c0-.644-.19-1.168-.835-1.168-.642 0-.833.525-.833 1.167zM120.607 49.71v-5.936c0-2.026 1.24-3.075 2.932-3.075 1.717 0 2.838 1.05 2.838 3.075v2.48c0 .525-.287.809-.835.809h-2.837v2.767c0 .668.189 1.143.834 1.143.646 0 .811-.475.811-.976v-.884c0-.523.287-.809.835-.809h.334c.548 0 .835.287.835.809v1.026c0 1.765-1.074 2.645-2.79 2.645-1.717 0-2.957-1.047-2.957-3.074zm2.098-6.032v1.861h1.669v-1.86c0-.644-.189-1.168-.835-1.168-.644 0-.834.525-.834 1.167zM129.785 52.62h-.669c-.929 0-1.572-.453-1.572-1.575V36.956c0-.643.381-1.025 1.025-1.025h.048c.643 0 1.025.381 1.025 1.025V50.69c0 .167.095.213.238.213h.049c.332 0 .548.167.548.62v.405c0 .454-.287.693-.692.693zM136.223 54.621c.644 0 .953-.452.953-1.19v-2.337c-.239.358-.739.81-1.573.81-1.217 0-2.218-.882-2.218-2.741v-5.747c0-1.787 1.001-2.717 2.241-2.717.93 0 1.478.549 1.716.977l.047-.12c.215-.451.548-.69 1.073-.69h.048c.478 0 .762.285.762.762v11.755c0 1.978-1.286 3.05-3.003 3.05-1.764 0-2.933-1-2.933-2.74v-.191c0-.62.335-.954.953-.954h.073c.62 0 .929.334.929.954v.142c.001.525.286.977.932.977zm.119-4.696c.595 0 .835-.477.835-1.191V43.87c0-.739-.239-1.193-.835-1.193-.62 0-.859.454-.859 1.193v4.863c0 .716.238 1.192.859 1.192zM143.494 52.785c-1.694 0-2.933-1.048-2.933-3.075v-5.936c0-2.026 1.239-3.075 2.933-3.075 1.716 0 2.931 1.05 2.931 3.075v5.936c0 2.027-1.214 3.075-2.931 3.075zm0-1.811c.643 0 .834-.524.834-1.168V43.68c0-.643-.191-1.167-.834-1.167-.644 0-.835.524-.835 1.167v6.127c0 .644.191 1.168.835 1.168zM150.501 52.785c-1.692 0-2.932-1.048-2.932-3.075v-5.936c0-2.026 1.24-3.075 2.932-3.075 1.717 0 2.932 1.05 2.932 3.075v5.936c0 2.027-1.215 3.075-2.932 3.075zm0-1.811c.644 0 .835-.524.835-1.168V43.68c0-.643-.192-1.167-.835-1.167s-.834.524-.834 1.167v6.127c0 .644.191 1.168.834 1.168zM158.583 51.81c-.238.427-.762.975-1.716.975-1.24 0-2.241-.929-2.241-2.717v-6.652c0-1.787.857-2.717 2.146-2.717.811 0 1.408.525 1.645.907v-4.65c0-.643.38-1.025 1.025-1.025h.047c.644 0 1.025.381 1.025 1.025v14.901c0 .477-.285.763-.76.763h-.05c-.524 0-.859-.239-1.071-.693l-.05-.118zm-1-1.002c.596 0 .834-.453.834-1.192V43.87c0-.739-.237-1.193-.834-1.193-.62 0-.86.454-.86 1.193v5.745c0 .74.239 1.193.86 1.193zM166.162 52.785c-1.525 0-2.336-1.143-2.336-2.787v-.525c0-1.358.359-2.384 1.525-3.17l2.123-1.454v-1.502c0-.574-.286-.836-.738-.836-.503 0-.764.334-.764.858v.835c0 .501-.286.787-.786.787h-.335c-.525 0-.81-.286-.81-.81v-.859c0-1.622 1.072-2.622 2.837-2.622 1.717 0 2.694 1.025 2.694 2.646v7.534c0 .452.405.07.405.38v.977c0 .287-.167.383-.428.383h-.74c-.5 0-.883-.287-.977-.693-.286.454-.785.858-1.67.858zm.526-1.762c.502 0 .786-.36.786-1.074v-3.146l-.859.691c-.477.382-.666.81-.666 1.574v1.001c0 .548.189.953.739.953zM174.698 52.785c-.952 0-1.477-.547-1.716-.975l-.095.19c-.238.429-.596.62-1.073.62h-.048c-.452 0-.715-.262-.715-.716V36.956c0-.643.382-1.025 1.025-1.025h.048c.644 0 1.026.381 1.026 1.025v4.65c.237-.383.833-.907 1.644-.907 1.287 0 2.146.93 2.146 2.717v6.653c-.001 1.788-1.002 2.716-2.242 2.716zm-.69-1.977c.595 0 .833-.453.833-1.192V43.87c0-.739-.237-1.193-.833-1.193-.621 0-.858.454-.858 1.193v5.745c0 .74.236 1.193.858 1.193zM181.039 52.785c-1.691 0-2.932-1.048-2.932-3.075v-5.936c0-2.026 1.241-3.075 2.932-3.075 1.717 0 2.934 1.05 2.934 3.075v5.936c0 2.027-1.217 3.075-2.934 3.075zm0-1.811c.644 0 .835-.524.835-1.168V43.68c0-.643-.192-1.167-.835-1.167-.642 0-.834.524-.834 1.167v6.127c0 .644.191 1.168.834 1.168zM189.002 51.761a1.904 1.904 0 01-1.693 1.024c-1.24 0-2.098-.928-2.098-2.716v-8.178c0-.643.382-1.025 1.026-1.025h.047c.644 0 1.026.382 1.026 1.025v7.82c0 .692.191 1.12.786 1.12.572 0 .787-.428.787-1.12v-7.82c0-.643.381-1.025 1.025-1.025h.048c.643 0 1.026.382 1.026 1.025v9.942c0 .501-.286.787-.763.787h-.048c-.525 0-.882-.239-1.097-.716l-.072-.143zM195.271 52.62h-1.001c-.929 0-1.574-.453-1.574-1.575v-8.462h-.023c-.524 0-.835-.31-.835-.835V41.7c0-.525.311-.835.835-.835h.023v-3.91c0-.643.382-1.025 1.05-1.025h.047c.644 0 1.001.382 1.001 1.026v3.91h.335c.524 0 .833.31.833.834v.048c0 .524-.309.835-.833.835h-.335v8.106c0 .167.072.213.216.213h.333c.405 0 .618.191.618.645v.38c.001.454-.284.693-.69.693z"/></svg>